<svg id="Capa_1" data-name="Capa 1" xmlns="http://www.w3.org/2000/svg" viewBox="0 0 192 192"><defs><style>.cls-1{fill:#29abe2;}</style></defs><path class="cls-1" d="M156.58,158.94h-8.5a8.61,8.61,0,0,1-8.39-6.14c-.22-.69-.48-.8-1.15-.64a148.37,148.37,0,0,1-19.78,3.05c-3.54.35-7.09.58-10.65.79-6.26.36-12.52.35-18.79.23-4.82-.1-9.65-.38-14.46-.85-3.9-.39-7.82-.72-11.69-1.31-3.34-.51-6.65-1.22-10-1.88-.64-.13-.91,0-1.12.64a8.93,8.93,0,0,1-8.51,6.26H26.41a9,9,0,0,1-9-8.92c0-3.59,0-7.18,0-10.77a7.85,7.85,0,0,1,1-4,1.25,1.25,0,0,0,0-1.43,38.34,38.34,0,0,1-5.35-17.1c-.75-10,2.15-18.9,7.9-27A47.46,47.46,0,0,1,32.41,78.55a1.45,1.45,0,0,0,.67-1.14c.91-9.33,5-17.18,11.26-24A60.8,60.8,0,0,1,67.56,38.09a77.11,77.11,0,0,1,19-4.64A79.08,79.08,0,0,1,99.84,33a75.73,75.73,0,0,1,32.79,8.79,54.31,54.31,0,0,1,19.77,17.4,39.26,39.26,0,0,1,6.56,17,1,1,0,0,1,0,.23c-.3,1.56.73,2.26,1.81,3.08a47.8,47.8,0,0,1,13.1,15,39.63,39.63,0,0,1,1.92,35.24,29.89,29.89,0,0,1-2.32,4.5,1.44,1.44,0,0,0-.11,1.59,6.45,6.45,0,0,1,.63,2.88c0,4,0,7.9,0,11.85a8.9,8.9,0,0,1-8.45,8.44c-3,0-6,0-9,0Zm-60.13-9.72c3.67,0,7.1-.13,10.53-.27,4-.17,8-.51,12-.94a137.29,137.29,0,0,0,23.26-4.4,68.31,68.31,0,0,0,17.72-7.38,18.21,18.21,0,0,0,6.47-6.52,31.69,31.69,0,0,0,3.86-19.11,34.64,34.64,0,0,0-9.47-20.19,42.16,42.16,0,0,0-10.11-8.26,1,1,0,0,1-.6-1.05A26.89,26.89,0,0,0,149.9,78a33.22,33.22,0,0,0-9.44-19.6,52.8,52.8,0,0,0-21.34-13.23,70.68,70.68,0,0,0-27.5-3.63,68.59,68.59,0,0,0-15.71,2.72C66.66,47,58.38,51.43,51.62,58.48A36.21,36.21,0,0,0,43,73.31,24.71,24.71,0,0,0,42,81a1.13,1.13,0,0,1-.61,1.14,43.12,43.12,0,0,0-14.8,14.37,33.1,33.1,0,0,0-5,15.82,32.5,32.5,0,0,0,2.78,14.9,17.88,17.88,0,0,0,4.67,6.9,34.07,34.07,0,0,0,6.39,4.17,84.53,84.53,0,0,0,18,6.33,166.42,166.42,0,0,0,33.1,4.4C89.88,149.17,93.28,149.31,96.45,149.22Z"/><path class="cls-1" d="M64.46,105.61a17.19,17.19,0,1,1-17-17.26A17.17,17.17,0,0,1,64.46,105.61Z"/><path class="cls-1" d="M96.3,131.32a37.39,37.39,0,0,1-18.43-4.22A39.27,39.27,0,0,1,73.08,124a3.3,3.3,0,0,1,3.58-5.52c1.6.91,3,2.1,4.7,2.92a30.41,30.41,0,0,0,11.19,3.14,40.53,40.53,0,0,0,11.63-.65,15,15,0,0,0,10-6.7,6,6,0,0,0,.47-5.58,3.37,3.37,0,0,1,1-3.81,3.26,3.26,0,0,1,4-.13,4.65,4.65,0,0,1,1.78,3,13.8,13.8,0,0,1-3.52,12.61c-3.85,4.38-8.78,6.61-14.42,7.5A41.51,41.51,0,0,1,96.3,131.32Z"/><path class="cls-1" d="M152.64,93.76a3.28,3.28,0,0,1-2.5,3.27c-3.49,1-7,2.06-10.47,3.08s-6.93,2-10.4,3a3.42,3.42,0,0,1-4.24-1.69,3.38,3.38,0,0,1,2.16-4.83c2.68-.84,5.39-1.59,8.08-2.38l12.35-3.6a4.3,4.3,0,0,1,2.36-.25A3.29,3.29,0,0,1,152.64,93.76Z"/></svg>