<svg id="Capa_1" data-name="Capa 1" xmlns="http://www.w3.org/2000/svg" viewBox="0 0 123.06 123.48"><defs><style>.cls-1{fill:#29abe2;}.cls-2{fill:#fff;}.cls-3{fill:#c1272d;}.cls-4{fill:none;stroke:#29abe2;stroke-linecap:round;stroke-miterlimit:10;stroke-width:3px;}</style></defs><circle class="cls-1" cx="61.74" cy="61.74" r="49.93"/><path class="cls-2" d="M91.18,46.26A5.17,5.17,0,0,0,86,41.1H37.64a5.17,5.17,0,0,0-5.16,5.16V77.21a5.17,5.17,0,0,0,5.16,5.16H86a5.16,5.16,0,0,0,5.16-5.16ZM35.92,47,50.78,61.75,35.92,76.51Zm29.56,17.3a5.15,5.15,0,0,1-7.3,0L38.36,44.54H85.3Zm-12.26-.09,2.53,2.52a8.59,8.59,0,0,0,12.16,0l2.53-2.52L85.3,78.93H38.37Zm19.66-2.42L87.74,47V76.51Z"/><circle class="cls-3" cx="89.97" cy="41.77" r="8.39"/><path class="cls-2" d="M89.54,39h0l-1.57.85-.24-.93,2-1.06h1v9.07H89.54Z"/><path class="cls-4" d="M3.33,76.52A60.31,60.31,0,0,1,31.49,9.64"/><path class="cls-4" d="M61.74,122A60.26,60.26,0,0,1,7.34,87.65"/><path class="cls-4" d="M121.56,68.88a60.22,60.22,0,0,1-26.11,42.78"/><path class="cls-4" d="M61.74,1.5c33.71,0,56.4,21.43,59.17,52.48"/><circle class="cls-1" cx="45.24" cy="4.18" r="1.89"/><circle class="cls-1" cx="80.31" cy="119.98" r="1.89"/></svg>