<svg id="Capa_1" data-name="Capa 1" xmlns="http://www.w3.org/2000/svg" viewBox="0 0 214.26 215.74"><defs><style>.cls-1{fill:#fff;}</style></defs><path class="cls-1" d="M210.7,67.07H123.35V56.39a16.4,16.4,0,1,0-32.79,0V67.07h-87A3.56,3.56,0,0,0,0,70.63v63.9a3.56,3.56,0,0,0,3.56,3.56h38.7L21.85,208.62H11.52a3.56,3.56,0,1,0,0,7.12h91a3.56,3.56,0,1,0,0-7.12H92.2L72.76,138.09H181.64v70.53h-9.77a3.56,3.56,0,0,0,0,7.12h26.67a3.56,3.56,0,1,0,0-7.12h-9.78V138.09H210.7a3.56,3.56,0,0,0,3.56-3.56V70.63A3.56,3.56,0,0,0,210.7,67.07ZM207.14,131h-.08L172.52,74.2h34.62ZM93.93,74.2h30.92L159.39,131H128.47ZM120.09,131H89.17L54.63,74.2H85.55ZM133.22,74.2h30.92L198.69,131H167.77ZM97.68,56.39a9.28,9.28,0,1,1,18.55,0V67.07H97.68ZM7.12,74.47,41.5,131H7.12Zm70.67,108.7H36.63l5.66-19.56H72.4ZM29.27,208.62l5.3-18.32H79.76l5,18.32Zm41.17-52.14H44.35l5.32-18.39h15.7ZM51.73,131l2.34-8.1h7.1l2.24,8.1Zm15.59-12.61a3.56,3.56,0,0,0-3.43-2.61H51.4A3.56,3.56,0,0,0,48,118.32l-1.87,6.46L15.33,74.2H46.25L80.8,131h-10Z"/><path class="cls-1" d="M74.1,35.12a3.56,3.56,0,1,0,5-5L66.71,17.65a3.56,3.56,0,0,0-5,5Z"/><path class="cls-1" d="M92.94,22.15a3.58,3.58,0,0,0,3.41,2.54,3.35,3.35,0,0,0,1-.16,3.55,3.55,0,0,0,2.38-4.43L94.47,2.54a3.56,3.56,0,1,0-6.82,2.05Z"/><path class="cls-1" d="M137.64,36.16a3.54,3.54,0,0,0,2.52-1l12.43-12.43a3.56,3.56,0,0,0-5-5L135.12,30.08a3.56,3.56,0,0,0,2.52,6.08Z"/><path class="cls-1" d="M116.88,24.53a3.4,3.4,0,0,0,1,.16,3.57,3.57,0,0,0,3.41-2.54l5.29-17.56a3.56,3.56,0,1,0-6.82-2L114.5,20.1A3.55,3.55,0,0,0,116.88,24.53Z"/></svg>