<svg id="Capa_1" data-name="Capa 1" xmlns="http://www.w3.org/2000/svg" viewBox="0 0 77.84 77.84"><defs><style>.cls-1{fill:#fff;}</style></defs><path class="cls-1" d="M66.44,11.4A38.91,38.91,0,0,0,16.9,6.83a1.52,1.52,0,1,0,1.72,2.51,35.89,35.89,0,1,1-9.28,9.28A1.52,1.52,0,0,0,6.83,16.9,38.92,38.92,0,0,0,66.44,66.44a38.92,38.92,0,0,0,0-55Zm0,0"/><path class="cls-1" d="M38.92,70.24a31.33,31.33,0,0,0,29.6-41.57v0A31.32,31.32,0,1,0,38.92,70.24ZM67.2,38.92c0,.73,0,1.45-.08,2.16a25.55,25.55,0,0,0-4.66.7A24,24,0,0,0,60.69,29.5c1.75.3,3.5.64,5.23,1a28.17,28.17,0,0,1,1.28,8.41ZM57,28.93a20.9,20.9,0,0,1,2.2,13.9A24.74,24.74,0,0,0,44.78,58.76a20.86,20.86,0,0,1-11.72,0A24.7,24.7,0,0,0,18.62,42.83a20.9,20.9,0,0,1,2.2-13.9,128.68,128.68,0,0,1,36.21,0ZM15.38,41.78a25.42,25.42,0,0,0-4.66-.7c-.05-.71-.08-1.43-.08-2.16a28.17,28.17,0,0,1,1.28-8.41c1.74-.37,3.48-.71,5.24-1a24,24,0,0,0-1.78,12.28Zm-4.25,2.38A21.62,21.62,0,0,1,31,65.68c0,.13,0,.26,0,.39A28.36,28.36,0,0,1,11.13,44.16ZM34,66.78c0-.37,0-.74,0-1.1a23.84,23.84,0,0,0-.27-3.6,23.78,23.78,0,0,0,10.26,0,25.21,25.21,0,0,0-.26,3.6c0,.37,0,.73,0,1.1a28.68,28.68,0,0,1-9.78,0Zm12.8-.71v-.39A21.61,21.61,0,0,1,66.71,44.16,28.36,28.36,0,0,1,46.83,66.07ZM38.92,10.64a28.33,28.33,0,0,1,25.71,16.5,131.85,131.85,0,0,0-51.41,0,28.3,28.3,0,0,1,25.7-16.5Zm0,0"/><path class="cls-1" d="M31.32,38.92a7.6,7.6,0,1,0,7.6-7.6,7.61,7.61,0,0,0-7.6,7.6Zm7.6-4.56a4.56,4.56,0,1,1-4.56,4.56,4.56,4.56,0,0,1,4.56-4.56Zm0,0"/><path class="cls-1" d="M12.47,14a1.52,1.52,0,1,0-1.07-2.6h0A1.53,1.53,0,0,0,12.47,14Zm0,0"/></svg>