<svg id="Capa_1" data-name="Capa 1" xmlns="http://www.w3.org/2000/svg" viewBox="0 0 77.84 77.84"><defs><style>.cls-1{fill:#fff;}</style></defs><path class="cls-1" d="M17.78,14.36a1.14,1.14,0,1,0-1.14-1.14,1.14,1.14,0,0,0,1.14,1.14Zm-9.12,0a1.14,1.14,0,1,0-1.14-1.14,1.14,1.14,0,0,0,1.14,1.14Zm4.56,0a1.14,1.14,0,1,0-1.14-1.14,1.14,1.14,0,0,0,1.14,1.14ZM13,26.44H23.3a1.56,1.56,0,0,0,.8-2.91l-1.57-.92A13.22,13.22,0,1,0,0,13.22,13.36,13.36,0,0,0,13,26.44Zm-7.43-21a10.87,10.87,0,0,1,7.84-3.15,10.94,10.94,0,0,1,7,19.19,1.67,1.67,0,0,0,.25,2.69H13A10.94,10.94,0,0,1,5.54,5.43ZM76.7,75.56H75.56v-17a11.28,11.28,0,0,0-6.71-10.3l-6-2.57a8.94,8.94,0,0,0,3.86-2.43,9.45,9.45,0,0,0,2.55-6.41A9.07,9.07,0,0,0,67.07,31a11.78,11.78,0,0,1-2.77-7.59V17.92a17.92,17.92,0,1,0-35.83,0V23.2a12.35,12.35,0,0,1-3,7.82,9.23,9.23,0,0,0,4.4,14.73l-6,2.59a11.24,11.24,0,0,0-6.9,10.38V72.14a1.15,1.15,0,0,0,2.29,0V58.72a9,9,0,0,1,5.5-8.28l7.48-3.25v6.86H28.89a3.4,3.4,0,0,0-3.4,3.78l1.87,17.73H1.14a1.14,1.14,0,0,0,0,2.28H76.7a1.14,1.14,0,0,0,0-2.28ZM65.33,32.44A6.86,6.86,0,0,1,67,36.87,7.13,7.13,0,0,1,65,41.72a6.82,6.82,0,0,1-5,2.14H58.53l-2-.84a5.18,5.18,0,0,1-3.11-4.1A11.24,11.24,0,0,0,59.38,29V20.47l1,0A14.88,14.88,0,0,0,62,20.41v3a14,14,0,0,0,3.31,9.06Zm-18.67,18A42,42,0,0,1,34.6,48.91V46.19l.33-.14h0l2-.89a7.5,7.5,0,0,0,4.35-5.35,11.47,11.47,0,0,0,3.12.44h3.72a11.12,11.12,0,0,0,3.13-.45,7.5,7.5,0,0,0,4.38,5.32l2.17.93h0l.16.07v2.56a42,42,0,0,1-11.35,1.76ZM58,51.06v3H34.6V51.27a44.61,44.61,0,0,0,11.32,1.46h.78A44.12,44.12,0,0,0,58,51.06Zm4-32.95A12.69,12.69,0,0,1,52.9,15.8a1.15,1.15,0,0,0-1.6.2,1.13,1.13,0,0,0,.2,1.6,13.79,13.79,0,0,0,5.6,2.55v6.21a8.42,8.42,0,0,1-2.53,3.42A8.85,8.85,0,0,1,52.68,31a3.36,3.36,0,0,0-3-1.83H47a3.35,3.35,0,0,0,0,6.69H49.7a3.34,3.34,0,0,0,3.23-2.5,20.34,20.34,0,0,0,4-2.65A9,9,0,0,1,48.17,38H44.45A9,9,0,0,1,35.52,29V20.22a30.4,30.4,0,0,0,10.89-3.9A31,31,0,0,0,56.77,6.23,15.63,15.63,0,0,1,62,18.11ZM50.76,32.49a1.06,1.06,0,0,1-1.06,1.06H47a1.07,1.07,0,0,1,0-2.13H49.7a1.06,1.06,0,0,1,1.06,1.06Zm-20-14.58A15.64,15.64,0,0,1,55,4.83a28.71,28.71,0,0,1-9.71,9.53,28.18,28.18,0,0,1-10.79,3.71h-3.7Zm-4.43,22a6.87,6.87,0,0,1,.94-7.39,14.57,14.57,0,0,0,3.49-9.28V20.35h2.49V29a11.22,11.22,0,0,0,5.92,9.88,5.19,5.19,0,0,1-3.09,4.15l-1.81.79H32.6a6.88,6.88,0,0,1-6.28-4ZM66,57.59l-1.9,18H29.66l-1.91-18a1.13,1.13,0,0,1,.29-.88,1.11,1.11,0,0,1,.85-.38h36a1.11,1.11,0,0,1,.85.38,1.09,1.09,0,0,1,.28.88Zm7.27,18H66.4l1.88-17.73a3.42,3.42,0,0,0-3.4-3.78H60.29V47.1l7.65,3.27a9,9,0,0,1,5.34,8.21Zm-26.4-14A4.34,4.34,0,1,0,51.22,66a4.34,4.34,0,0,0-4.34-4.34Zm0,6.39a2.06,2.06,0,1,1,2.06-2,2.05,2.05,0,0,1-2.06,2Zm0,0"/></svg>