<svg id="Capa_1" data-name="Capa 1" xmlns="http://www.w3.org/2000/svg" viewBox="0 0 77.84 77.84"><defs><style>.cls-1{fill:#fff;}</style></defs><path class="cls-1" d="M38.92,0A38.92,38.92,0,1,0,77.84,38.92,38.93,38.93,0,0,0,38.92,0Zm0,75.25A36.33,36.33,0,1,1,75.25,38.92,36.34,36.34,0,0,1,38.92,75.25Z"/><path class="cls-1" d="M38.92,5.19A33.73,33.73,0,1,0,72.65,38.92,33.73,33.73,0,0,0,38.92,5.19Zm0,64.87A31.14,31.14,0,1,1,70.06,38.92,31.14,31.14,0,0,1,38.92,70.06Z"/><rect class="cls-1" x="9.08" y="37.62" width="5.19" height="2.59"/><rect class="cls-1" x="63.57" y="37.62" width="5.19" height="2.59"/><rect class="cls-1" x="12.73" y="51.25" width="5.19" height="2.59" transform="translate(-24.22 14.7) rotate(-29.99)"/><rect class="cls-1" x="59.92" y="24" width="5.19" height="2.59" transform="translate(-4.27 34.64) rotate(-29.99)"/><rect class="cls-1" x="14.03" y="22.7" width="2.59" height="5.19" transform="translate(-14.25 25.93) rotate(-60.01)"/><rect class="cls-1" x="61.22" y="49.95" width="2.59" height="5.19" transform="translate(-14.24 80.42) rotate(-60.01)"/><rect class="cls-1" x="24" y="12.73" width="2.59" height="5.19" transform="translate(-4.27 14.7) rotate(-29.99)"/><rect class="cls-1" x="37.62" y="9.08" width="2.59" height="5.19"/><rect class="cls-1" x="49.95" y="14.03" width="5.19" height="2.59" transform="translate(13 53.17) rotate(-60.01)"/><rect class="cls-1" x="10.68" y="29.76" width="2.59" height="3.89" transform="translate(-21.74 35.07) rotate(-75)"/><rect class="cls-1" x="64.56" y="44.19" width="2.59" height="3.89" transform="translate(4.25 97.81) rotate(-75)"/><rect class="cls-1" x="17.9" y="17.25" width="2.59" height="3.89" transform="translate(-7.95 19.2) rotate(-45)"/><rect class="cls-1" x="30.4" y="10.03" width="2.59" height="3.89" transform="translate(-2.02 8.61) rotate(-15)"/><rect class="cls-1" x="44.19" y="10.69" width="3.89" height="2.59" transform="translate(22.62 53.45) rotate(-75)"/><rect class="cls-1" x="56.7" y="17.9" width="3.89" height="2.59" transform="translate(3.6 47.09) rotate(-45)"/><rect class="cls-1" x="63.93" y="30.4" width="3.89" height="2.59" transform="translate(-5.96 18.13) rotate(-15)"/><rect class="cls-1" x="10.03" y="44.84" width="3.89" height="2.59" transform="translate(-11.53 4.67) rotate(-15)"/><path class="cls-1" d="M60.28,44.43A22.05,22.05,0,1,0,19.82,50a1.3,1.3,0,0,0,2.24-1.3,19.46,19.46,0,1,1,35.71-4.86,1.3,1.3,0,1,0,2.51.65Z"/><path class="cls-1" d="M43.64,36.62a.52.52,0,0,0-.13-.06,5.17,5.17,0,1,0-4.9,7.52l18,6.44a1.42,1.42,0,0,0,.45.08,1.3,1.3,0,0,0,1.29-1.3,1.28,1.28,0,0,0-.47-1Zm-7.31,2.3a2.6,2.6,0,1,1,2.59,2.6A2.59,2.59,0,0,1,36.33,38.92Zm6.13,3.78a5.15,5.15,0,0,0,1.47-2.49l6.54,5.35Z"/><path class="cls-1" d="M44.11,51.9H33.73a6.49,6.49,0,0,0,0,13H44.11a6.49,6.49,0,1,0,0-13Zm0,10.38H33.73a3.9,3.9,0,0,1,0-7.79H44.11a3.9,3.9,0,0,1,0,7.79Z"/><path class="cls-1" d="M36.33,57.09h-2.6a1.3,1.3,0,1,0,0,2.59h2.6a1.3,1.3,0,0,0,0-2.59Z"/><path class="cls-1" d="M44.11,57.09H41.52a1.3,1.3,0,1,0,0,2.59h2.59a1.3,1.3,0,1,0,0-2.59Z"/></svg>