<svg id="Capa_1" data-name="Capa 1" xmlns="http://www.w3.org/2000/svg" viewBox="0 0 77.84 77.84"><defs><style>.cls-1{fill:#fff;}</style></defs><path class="cls-1" d="M75.25,34V27.24a3.89,3.89,0,0,0-3.89-3.89H69.57l-4.12-8.22A3.9,3.9,0,0,0,62,13H41.83a3.9,3.9,0,0,0-3.49,2.16l-4.11,8.22h-7a3.9,3.9,0,0,0-3.89,3.89V34a3.89,3.89,0,0,0,1.3,7.55h4.17a7.13,7.13,0,0,0,13.72,0H57.36a7.13,7.13,0,0,0,13.72,0H74A3.89,3.89,0,0,0,75.25,34Zm-2.6-6.73v6.49H68.31a7.1,7.1,0,0,0-8.18,0H53.19V29.84a1.3,1.3,0,1,0-2.59,0v3.89H39.77a7.1,7.1,0,0,0-8.18,0H26V31.14h2.59a3.9,3.9,0,0,0,3.89-3.9V26H71.36a1.29,1.29,0,0,1,1.29,1.29ZM42,36.33H57.88a6.56,6.56,0,0,0-.79,2.59H42.81A6.56,6.56,0,0,0,42,36.33Zm21.11-20,3.53,7.07H53.19V15.57H62a1.28,1.28,0,0,1,1.17.71Zm-22.47,0a1.28,1.28,0,0,1,1.17-.71H50.6v7.78H37.13ZM27.24,26h2.6v1.29a1.3,1.3,0,0,1-1.3,1.3H26v-1.3A1.29,1.29,0,0,1,27.24,26ZM23.35,37.62a1.31,1.31,0,0,1,.41-.92,1.19,1.19,0,0,1,.89-.37h4.68a6.91,6.91,0,0,0-.79,2.59H24.65a1.3,1.3,0,0,1-1.3-1.3Zm12.33,6.49a4.54,4.54,0,1,1,4.54-4.54,4.56,4.56,0,0,1-4.54,4.54Zm28.54,0a4.54,4.54,0,1,1,4.54-4.54,4.54,4.54,0,0,1-4.54,4.54Zm10.63-5.56a1.22,1.22,0,0,1-.9.37H71.36a6.74,6.74,0,0,0-.76-2.59H74a1.3,1.3,0,0,1,1.3,1.29,1.34,1.34,0,0,1-.4.93Zm0,0"/><path class="cls-1" d="M42.81,31.14h2.6a1.3,1.3,0,1,0,0-2.6h-2.6a1.3,1.3,0,0,0,0,2.6Zm0,0"/><path class="cls-1" d="M57.09,31.14h2.59a1.3,1.3,0,0,0,0-2.6H57.09a1.3,1.3,0,0,0,0,2.6Zm0,0"/><path class="cls-1" d="M71.45,51.48l-24,8a4,4,0,0,1-1.29.19h-.73a6,6,0,0,0-.48-5.11l-.12-.2a7.76,7.76,0,0,0-6.63-3.77H31.4a10.57,10.57,0,0,1-6.59-2.31,13.15,13.15,0,0,0-8.2-2.88H14a3.89,3.89,0,0,0-3.63-2.6H3.89A3.9,3.9,0,0,0,0,46.71V74a3.89,3.89,0,0,0,3.89,3.89h6.49a3.86,3.86,0,0,0,2.88-1.29H45.8A10.42,10.42,0,0,0,51.2,75l24.31-14.8a4.85,4.85,0,0,0-4.06-8.75ZM10.38,75.25H3.89A1.3,1.3,0,0,1,2.59,74V46.71a1.3,1.3,0,0,1,1.3-1.3h6.49a1.3,1.3,0,0,1,1.3,1.3V74a1.3,1.3,0,0,1-1.3,1.3ZM75.25,56.51a2.25,2.25,0,0,1-1,1.51L49.85,72.82A7.81,7.81,0,0,1,45.8,74H14.27V48h2.34a10.68,10.68,0,0,1,6.59,2.31,13.15,13.15,0,0,0,8.2,2.88h6.78a5.2,5.2,0,0,1,4.45,2.52l.12.2a3.39,3.39,0,0,1-.19,3.77H34.68a13,13,0,0,0-7.2,2.18l-.95.64A1.3,1.3,0,0,0,28,64.65l1-.64a10.45,10.45,0,0,1,5.76-1.74H46.2a6.47,6.47,0,0,0,2-.33l24-8a2.26,2.26,0,0,1,2.52.81,2.21,2.21,0,0,1,.45,1.77Zm0,0"/><path class="cls-1" d="M19.46,17.89V14.52a7.78,7.78,0,0,0,3.89-6.74V3.89A3.89,3.89,0,0,0,19.46,0H9.08A3.89,3.89,0,0,0,5.19,3.89V7.78a7.8,7.8,0,0,0,3.89,6.74V31.57a2.56,2.56,0,0,0,.52,1.55l2.6,3.47a2.61,2.61,0,0,0,4.15,0l2.59-3.47a2.56,2.56,0,0,0,.52-1.55V28.82a2,2,0,0,0-.57-1.38L17.4,26l1.22-1.22a2,2,0,0,0,.57-1.38A2,2,0,0,0,18.62,22L17.4,20.76l1.49-1.49a2,2,0,0,0,.57-1.38ZM7.78,3.89a1.31,1.31,0,0,1,1.3-1.3H19.46a1.3,1.3,0,0,1,1.3,1.3V7.78A5.19,5.19,0,0,1,15.57,13H13A5.19,5.19,0,0,1,7.78,7.78Zm7.33,18.24,1.22,1.22-1.22,1.22A2,2,0,0,0,14.54,26a1.94,1.94,0,0,0,.57,1.37l1.76,1.76v2.49L14.27,35l-2.59-3.46V15.45a9.38,9.38,0,0,0,1.29.12h2.6a9.52,9.52,0,0,0,1.3-.12v2.18l-1.76,1.75a2,2,0,0,0-.57,1.38,1.94,1.94,0,0,0,.57,1.37Zm0,0"/><path class="cls-1" d="M13,7.78h2.6a1.3,1.3,0,1,0,0-2.59H13a1.3,1.3,0,0,0,0,2.59Zm0,0"/></svg>