<svg id="Capa_1" data-name="Capa 1" xmlns="http://www.w3.org/2000/svg" viewBox="0 0 43.2 43.85"><defs><style>.cls-1{fill:#fff;}</style></defs><path class="cls-1" d="M39.73,0H15a3.46,3.46,0,0,0-3.46,3.46V6a10.38,10.38,0,0,0-4,15.83l-7.1,7.1a1.27,1.27,0,0,0,0,1.82,1.28,1.28,0,0,0,.9.38,1.29,1.29,0,0,0,.91-.38l7.11-7.1a10.37,10.37,0,0,0,2.19,1.3V40.38A3.47,3.47,0,0,0,15,43.85H39.73a3.48,3.48,0,0,0,3.47-3.47V3.47A3.47,3.47,0,0,0,39.73,0ZM7.88,15.2a7.75,7.75,0,0,1,5.25-7.1l0,0a7.89,7.89,0,0,1,2.47-.4h.27a7.77,7.77,0,1,1-.52,15.54,8.2,8.2,0,0,1-2.21-.39l0,0A7.79,7.79,0,0,1,10,20.77,7.71,7.71,0,0,1,7.88,15.2ZM40.63,40.38a.9.9,0,0,1-.9.9H15a.89.89,0,0,1-.89-.9V25.68a10.54,10.54,0,0,0,1.59.12A10.34,10.34,0,0,0,16,5.12a10.48,10.48,0,0,0-1.94.12V3.47a.89.89,0,0,1,.89-.9H39.73a.9.9,0,0,1,.9.9Zm0,0"/><path class="cls-1" d="M36,38.42a1.28,1.28,0,0,0,1.28-1.29V32.77a2,2,0,0,0-2-2H31.52V28.67a2.23,2.23,0,0,0-2.23-2.23h-4.1a2,2,0,0,0-2,2v.22H19.51a2.13,2.13,0,0,0-2.13,2.13v6.3a1.29,1.29,0,0,0,1.29,1.29Zm-1.29-2.57"/></svg>