<svg id="Capa_1" data-name="Capa 1" xmlns="http://www.w3.org/2000/svg" viewBox="0 0 40.05 31.08"><defs><style>.cls-1{fill:#fff;}</style></defs><path class="cls-1" d="M29.82,14.09c-1.86.88-3.37,3.57-5.14,1.8a55.68,55.68,0,0,1-3.83-5.14c-1.59-2.26-3.61-4.21-6-2-2.67,2.5-4.49,9.29-4.65,12.78H35.34c-.57-2.06-2.81-8.77-5.52-7.47Zm0,0"/><path class="cls-1" d="M32.8,7.05A3.09,3.09,0,1,1,29.71,4,3.09,3.09,0,0,1,32.8,7.05Zm0,0"/><path class="cls-1" d="M39.13,0H6.43a.92.92,0,0,0-.92.92V5.56H.92A.92.92,0,0,0,0,6.48V30.17a.92.92,0,0,0,.92.91h32.7a.92.92,0,0,0,.92-.91V25.52h4.59a.92.92,0,0,0,.92-.92V.92A.92.92,0,0,0,39.13,0ZM32.07,28.62H2.47V8h3V22.34a25.2,25.2,0,0,0-.81,4.78H29.84c-.11-.39-.28-.95-.51-1.6h2.74Zm5.51-5.57H8V2.47H37.58Zm0,0"/></svg>