<svg id="Capa_1" data-name="Capa 1" xmlns="http://www.w3.org/2000/svg" viewBox="0 0 48.71 48.71"><defs><style>.cls-1{fill:#fff;}</style></defs><path class="cls-1" d="M39.39,37.9a.94.94,0,0,0-1,1v7a1,1,0,0,1-.95,1H2.85a1,1,0,0,1-1-1v-43a1,1,0,0,1,1-1H37.49a1,1,0,0,1,.95,1V13.2a1,1,0,1,0,1.9,0V2.85A2.86,2.86,0,0,0,37.49,0H2.85A2.86,2.86,0,0,0,0,2.85v43a2.86,2.86,0,0,0,2.85,2.85H37.49a2.86,2.86,0,0,0,2.85-2.85v-7A.94.94,0,0,0,39.39,37.9Z"/><path class="cls-1" d="M28.92,13.89a8.75,8.75,0,1,0-14.75,6.36l.1.1a8.75,8.75,0,0,0,11.8,0l.11-.1A8.7,8.7,0,0,0,28.92,13.89ZM20.17,7A6.84,6.84,0,0,1,25.68,18a6.58,6.58,0,0,0-2.8-2.35,3.39,3.39,0,0,0,.72-2.09v-.62a3.43,3.43,0,0,0-6.85,0v.62a3.38,3.38,0,0,0,.71,2.09A6.58,6.58,0,0,0,14.66,18,6.84,6.84,0,0,1,20.17,7Z"/><path class="cls-1" d="M25.31,41.67H20.17a1,1,0,0,0,0,1.91h5.14a1,1,0,0,0,0-1.91Z"/><path class="cls-1" d="M25.31,36.35H11.8a1,1,0,1,0,0,1.9H25.31a.95.95,0,1,0,0-1.9Z"/><path class="cls-1" d="M25.31,31H11.8a.95.95,0,0,0,0,1.9H25.31a1,1,0,0,0,0-1.9Z"/><path class="cls-1" d="M8.41,26a1,1,0,0,0-.68-.28,1,1,0,0,0-.67.28.94.94,0,0,0,0,1.34,1,1,0,0,0,.67.28A.95.95,0,0,0,8.41,26Z"/><path class="cls-1" d="M8.41,31.3A1,1,0,0,0,7.73,31a1,1,0,0,0-.67.28.93.93,0,0,0-.28.67,1,1,0,0,0,1,1,1,1,0,0,0,.68-.28A1,1,0,0,0,8.69,32,1,1,0,0,0,8.41,31.3Z"/><path class="cls-1" d="M7.73,36.35a1,1,0,0,0-.67.27,1,1,0,0,0-.28.68,1,1,0,0,0,1,1A1,1,0,0,0,8.41,38a1,1,0,0,0,.28-.67.94.94,0,0,0-1-.95Z"/><path class="cls-1" d="M25.31,25.69H11.8a1,1,0,0,0,0,1.9H25.31a1,1,0,0,0,0-1.9Z"/><path class="cls-1" d="M46.72,12.4a4,4,0,0,0-5.46,1.46l-12,20.74a1.15,1.15,0,0,0-.12.37l-.84,7.55a1,1,0,0,0,.47.93.93.93,0,0,0,1-.06L36,38.89a1.2,1.2,0,0,0,.26-.29l12-20.74A4,4,0,0,0,46.72,12.4ZM30.89,36.63l2.76,1.59-3.2,2.35Zm4.14.19-3.62-2.09L41,18.09l3.62,2.09Zm11.5-19.91-.94,1.62L42,16.44l.93-1.63a2.09,2.09,0,0,1,1.28-1,2,2,0,0,1,1.58.21,2.08,2.08,0,0,1,1,1.27A2.11,2.11,0,0,1,46.53,16.91Z"/></svg>