<svg id="Capa_1" data-name="Capa 1" xmlns="http://www.w3.org/2000/svg" viewBox="0 0 43.03 43.03"><defs><style>.cls-1{fill:#fff;}</style></defs><path class="cls-1" d="M21.52,9.61a11.91,11.91,0,1,0,11.9,11.91A11.92,11.92,0,0,0,21.52,9.61Zm0,21.29a9.39,9.39,0,1,1,9.38-9.38,9.4,9.4,0,0,1-9.38,9.38Zm0,0"/><path class="cls-1" d="M43,25.09V17.94a1.41,1.41,0,0,0-1.41-1.41h-3a17.72,17.72,0,0,0-1.49-3.61l2.09-2.09a1.42,1.42,0,0,0,0-2L34.2,3.77a1.41,1.41,0,0,0-2,0l-2.1,2.1a17.86,17.86,0,0,0-3.61-1.5v-3A1.41,1.41,0,0,0,25.09,0H17.94a1.41,1.41,0,0,0-1.41,1.41v3a18.35,18.35,0,0,0-3.61,1.5l-2.09-2.1a1.42,1.42,0,0,0-2,0L3.77,8.83a1.42,1.42,0,0,0,0,2l2.1,2.09a18.35,18.35,0,0,0-1.5,3.61h-3A1.41,1.41,0,0,0,0,17.94v7.15A1.41,1.41,0,0,0,1.41,26.5h3a17.86,17.86,0,0,0,1.5,3.61l-2.1,2.1a1.41,1.41,0,0,0,0,2l5.06,5.06a1.42,1.42,0,0,0,2,0l2.09-2.09a17.72,17.72,0,0,0,3.61,1.49v3A1.41,1.41,0,0,0,17.94,43h7.15a1.41,1.41,0,0,0,1.41-1.41v-3a17.27,17.27,0,0,0,3.61-1.49l2.1,2.09a1.41,1.41,0,0,0,2,0l5.06-5.06a1.41,1.41,0,0,0,0-2l-2.09-2.1a17.27,17.27,0,0,0,1.49-3.61h3A1.41,1.41,0,0,0,43,25.09Zm-6.34,8.12-3.48,3.48L30.5,34l-.85.54A15.17,15.17,0,0,1,25,36.46l-1,.23v3.82H19.05V36.69l-1-.23a15.12,15.12,0,0,1-4.68-1.94L12.54,34,9.83,36.69,6.34,33.21,9.05,30.5l-.53-.85A15.19,15.19,0,0,1,6.57,25l-.22-1H2.52V19.05H6.35l.22-1a15.14,15.14,0,0,1,1.95-4.68l.53-.85L6.34,9.83,9.83,6.34l2.71,2.71.85-.53a15.14,15.14,0,0,1,4.68-1.95l1-.22V2.52H24V6.35l1,.22a15.19,15.19,0,0,1,4.69,1.95l.85.53,2.71-2.71,3.48,3.49L34,12.54l.53.85a15.12,15.12,0,0,1,1.94,4.68l.23,1h3.82V24H36.69l-.23,1a15.17,15.17,0,0,1-1.94,4.69L34,30.5Zm0,0"/><path class="cls-1" d="M21.52,20.65a3.16,3.16,0,1,0-3.16-3.16,3.16,3.16,0,0,0,3.16,3.16Z"/><path class="cls-1" d="M22.14,20.65H20.9a4.2,4.2,0,0,0-4.2,4.2v.45a1.56,1.56,0,0,0,1.56,1.56h6.51a1.56,1.56,0,0,0,1.56-1.56v-.45a4.2,4.2,0,0,0-4.19-4.2Zm-3.2,4"/></svg>