<svg id="Capa_1" data-name="Capa 1" xmlns="http://www.w3.org/2000/svg" viewBox="0 0 38.95 46.95"><defs><style>.cls-1{fill:#fff;}</style></defs><path class="cls-1" d="M.07,10.07,10.34,45.72a1.72,1.72,0,0,0,2.11,1.17l19.82-5.72a3.1,3.1,0,0,0,1.87-1.49l4.42-8a3.11,3.11,0,0,0,.26-2.37L30.73,1.23A1.71,1.71,0,0,0,28.62.07L1.23,8A1.71,1.71,0,0,0,.07,10.07Zm2.46,0,26.1-7.53L36.3,29.12l-5.76,1.65a2.11,2.11,0,0,0-1.44,2.61l1.66,5.76L12.44,44.42Z"/><rect class="cls-1" x="12.2" y="10.94" width="10.13" height="2.37" rx="1.19" transform="translate(-2.68 5.26) rotate(-16.08)"/><rect class="cls-1" x="9.2" y="16.61" width="19.41" height="2.37" rx="1.19" transform="translate(-4.19 5.93) rotate(-16.08)"/><rect class="cls-1" x="10.6" y="21.48" width="19.41" height="2.37" rx="1.19" transform="matrix(0.96, -0.28, 0.28, 0.96, -5.48, 6.51)"/><rect class="cls-1" x="12" y="26.34" width="19.41" height="2.37" rx="1.19" transform="translate(-6.78 7.09) rotate(-16.08)"/><rect class="cls-1" x="14.2" y="35.17" width="2.49" height="2.37" rx="1.19" transform="translate(-9.47 5.7) rotate(-16.08)"/><rect class="cls-1" x="18.83" y="33.5" width="4.84" height="2.37" rx="1.19" transform="translate(-8.78 7.24) rotate(-16.08)"/></svg>