<svg id="Capa_1" data-name="Capa 1" xmlns="http://www.w3.org/2000/svg" viewBox="0 0 140 50"><defs><style>.cls-1{fill:#fff;}</style></defs><path class="cls-1" d="M40.12,32.9a8.32,8.32,0,1,0,8.32,8.32A8.32,8.32,0,0,0,40.12,32.9Zm0,14.6a6.28,6.28,0,1,1,6.28-6.28A6.28,6.28,0,0,1,40.14,47.5Z"/><path class="cls-1" d="M40.12,35.84a5.38,5.38,0,1,0,5.38,5.38A5.38,5.38,0,0,0,40.12,35.84Zm-2,5.84L36.63,43s-.22.18-.36,0a3.13,3.13,0,0,1-.36-1.67c0-.87.24-2.16.72-1.85L38,40.67s.34.21.34.5A.75.75,0,0,1,38.12,41.68Zm3.7,3.45a3.18,3.18,0,0,1-1.68.36c-.87,0-2.15-.23-1.84-.71l1.23-1.4s.21-.33.5-.33a.75.75,0,0,1,.5.23l1.29,1.5S42,45,41.82,45.13Zm0-7.47-1.29,1.5a.75.75,0,0,1-.5.23c-.29,0-.5-.33-.5-.33l-1.23-1.4c-.31-.48,1-.72,1.84-.72a3.28,3.28,0,0,1,1.68.36C42,37.45,41.82,37.66,41.82,37.66ZM43.74,43l-1.49-1.28a.75.75,0,0,1-.24-.51c0-.29.34-.5.34-.5l1.39-1.23c.48-.31.72,1,.72,1.85A3.13,3.13,0,0,1,44.1,43C44,43.14,43.74,43,43.74,43Z"/><path class="cls-1" d="M88.75,32.9a8.32,8.32,0,1,0,8.32,8.32A8.31,8.31,0,0,0,88.75,32.9Zm0,14.6a6.28,6.28,0,1,1,6.29-6.28A6.28,6.28,0,0,1,88.77,47.5Z"/><path class="cls-1" d="M88.75,35.84a5.38,5.38,0,1,0,5.39,5.38A5.38,5.38,0,0,0,88.75,35.84Zm-2,5.84L85.26,43s-.21.18-.36,0a3.26,3.26,0,0,1-.35-1.67c0-.87.23-2.16.71-1.85l1.4,1.23s.33.21.33.5A.76.76,0,0,1,86.76,41.68Zm3.69,3.45a3.13,3.13,0,0,1-1.67.36c-.87,0-2.16-.23-1.85-.71l1.23-1.4s.21-.33.5-.33a.76.76,0,0,1,.51.23l1.28,1.5S90.63,45,90.45,45.13Zm0-7.47-1.28,1.5a.75.75,0,0,1-.5.23.72.72,0,0,1-.51-.33l-1.23-1.4c-.31-.48,1-.72,1.85-.72a3.23,3.23,0,0,1,1.67.36C90.63,37.45,90.45,37.66,90.45,37.66ZM92.38,43l-1.5-1.28a.76.76,0,0,1-.23-.51c0-.29.33-.5.33-.5l1.4-1.23c.48-.31.71,1,.71,1.85A3.26,3.26,0,0,1,92.74,43C92.59,43.14,92.38,43,92.38,43Z"/><path class="cls-1" d="M58.24,8.39a1.34,1.34,0,0,0-1.36-1.34l-2.05,0s-10-.34-13.16,1.61C38.45,11,32.53,16.89,29,20.9c-2.22,2.49-3.17,3-3.17,5.26,0,4.05,0,1.58,0,3.55,0,.85,0,2.95.08,3.93-.85.22-2.38.72-2.38,1.46v5.25a2.48,2.48,0,0,0,2.37,1.86c1.46.06,3.16,0,4,0a.45.45,0,0,0,.44-.46,12.07,12.07,0,0,1,1.23-5.34c2.2-4.43,7.07-5.15,8.61-5.15a9.51,9.51,0,0,1,9.61,6.89c.86,2.9.82,4.1,2,4.21.46,0-3.3.05,5,.05a1.54,1.54,0,0,0,1.54-1.53ZM54.42,21c-.32.08-11.7.27-15.64.33a.91.91,0,0,0,.11-.16A1.36,1.36,0,0,0,39.56,20V16a1.37,1.37,0,0,0-1.36-1.37h-.05a1.39,1.39,0,0,0-.5.1,42.53,42.53,0,0,1,4.44-4,10.82,10.82,0,0,1,4.76-1.55c2.4-.15,4.51-.24,4.51-.24h2.55a.78.78,0,0,1,.87.57c.17.67,0,10.76,0,10.76S54.81,20.89,54.42,21Z"/><path class="cls-1" d="M116.39,36.23c0-.57-.8-.9-1.33-1.06a1.27,1.27,0,0,0,0-.37V27.66s-.16-3.91-.81-8.37c-.35-2.4-1-19-6.63-18.51L89.76.46,63.54.76a3.49,3.49,0,0,0-3.45,3.49V42.41c9,0,14.71,0,17,0a1.32,1.32,0,0,0,1.3-1.13C78.82,38.38,80.61,31,88.1,31c8,0,10.29,6,10.94,8.66a1.56,1.56,0,0,0,1.63,1.18l12.39-.71a.12.12,0,0,1,0,0C117.32,39.88,116.41,37,116.39,36.23Z"/></svg>